<?xml version="1.0" encoding="utf-8"?>
<!DOCTYPE svg PUBLIC "-//W3C//DTD SVG 1.1//EN" "http://www.w3.org/Graphics/SVG/1.1/DTD/svg11.dtd">
<svg version="1.1" id="VARG" xmlns="http://www.w3.org/2000/svg" xmlns:xlink="http://www.w3.org/1999/xlink" x="0px" y="0px"
	 width="488px" height="73px" viewBox="0 0 488 73" enable-background="new 0 0 488 73" xml:space="preserve">
<path fill="#FF8200" d="M431.062,70.629c7.313-0.016,14.538-2.471,18.262-7.714c0.055,2.079,1.094,5.149,1.417,6.297h10.391
	c-0.229-2.943-0.607-6.013-0.63-8.973V3.878h-10.863v25.189c-3.236-3.747-10.556-6.533-16.531-6.455
	c-17.64-0.078-26.567,11.729-26.606,23.93C406.541,58.193,414.381,70.614,431.062,70.629z"/>
<path fill="#FF8200" d="M242.616,22.613L242.616,22.613c-0.434-0.031-27.59,0.252-29.597,24.087
	C211.672,60.838,224,70.662,242.616,70.629c18.458,0.032,29.604-9.744,29.597-23.929C272.22,32.878,259.94,23.337,242.616,22.613z"
	/>
<rect x="276.306" y="3.878" fill="#FF8200" width="12.752" height="65.334"/>
<path fill="#FF8200" d="M362.579,41.977c0.276-6.549,11.28-11.366,16.688-11.335c8.288-0.031,10.177,6.439,10.391,11.335v27.235
	h10.705V39.773c-0.008-1.558-0.197-4.439-1.102-7.242c-2.071-6.643-12.745-10.988-18.42-11.021
	c-8.588,0.032-14.587,3.763-18.104,7.872l-0.158-0.157v-6.927h-11.02v46.915h11.02V41.977z"/>
<path fill="#FF8200" d="M333.454,63.23c0.023,1.905,0.259,4.031,0.629,5.982h10.548c-0.198-1.29-0.67-2.612-0.788-4.88V39.616
	c0.023-13.728-11.454-17.034-22.827-17.003c-6.148-0.031-12.194,0.678-16.846,2.834c-4.511,2.094-7.534,5.637-7.714,11.335h11.965
	c-0.213-2.109,3.801-6.548,11.965-6.612c6.053,0.064,11.814,2.614,11.807,5.667v3.936v0.315c-6.793-0.173-19.404,0.063-26.133,2.519
	c-10.368,3.449-12.21,11.1-12.28,14.327c0.07,8.864,8.052,13.729,18.734,13.696C320.158,70.662,329.604,68.489,333.454,63.23z"/>
<path fill="#FF8200" d="M163.743,41.347h21.568c5.769,0.126,9.595,6.786,10.075,10.391c0.748,5.841,1.55,11.698,2.991,17.475h13.382
	c-3.299-3.558-3.913-11.255-4.723-15.428c-1.457-8.957-0.324-13.822-8.974-15.428v-0.157c10.115-1.778,12.003-8.721,11.965-17.16
	c0.039-13.381-13.327-17.018-27.393-17.16h-31.801v65.334h12.91V41.347z"/>
<path fill="#FF8200" d="M3.477,4.508h117.759c12.271,0.552,21.103,7.447,21.883,20.938c-0.402,12.249-8.148,20.23-21.883,20.781
	H49.762v3.778h92.57v7.084H42.678V39.143h78.401c9.595-0.314,14.271-4.801,14.956-13.696c-0.969-9.571-6.4-13.444-14.956-13.854
	H10.562v57.305H3.477V4.508z"/>
<path fill="#FF8200" d="M23.156,57.563v10.548h-7.084V16.316h105.637v18.262H45.354c-9.14,0.379-17.168,4.157-17.317,14.956
	c1.754,9.131,8.036,12.107,17.317,12.437h96.505v7.084H45.196C36.734,68.726,27.193,65.939,23.156,57.563z"/>
<path fill="#FFFFFF" d="M23.156,39.3c4.368-8.453,13.247-11.429,22.04-11.807h69.428V23.4H23.156V39.3z"/>
<path fill="#FF8200" d="M485.69,8.917c0.055-3.856-3.063-6.927-6.77-6.927c-3.897,0-7.014,3.071-6.927,6.927
	c-0.04,3.747,3.03,6.864,6.927,6.927C482.628,15.734,485.745,12.664,485.69,8.917z"/>
<path fill="#FFFFFF" d="M433.581,30.169c9.28,0.064,15.987,10.124,16.058,16.373c-0.071,6.313-6.117,15.712-15.271,15.743
	c-10.918-0.031-16.964-8.768-17.003-15.743C417.404,39.584,422.788,30.233,433.581,30.169z"/>
<path fill="#FFFFFF" d="M242.616,62.915c-10.493,0.048-17.153-9.114-17.16-16.215c0.007-7.352,6.195-16.089,17.16-16.058v-0.158
	v0.158c10.807-0.031,16.994,8.707,17.003,16.058C259.61,53.801,252.903,62.963,242.616,62.915z"/>
<path fill="#FFFFFF" d="M332.194,49.219c-0.323,9.399-6.652,12.752-16.058,12.752c-4.763,0-9.534-0.661-9.289-6.927
	c0.039-4.69,9.012-8.8,25.346-7.084V49.219z"/>
<path fill="#FFFFFF" d="M163.743,13.482h21.726c7.737,0.079,12.271,3.857,12.28,9.603c-0.009,5.826-4.542,8.943-12.28,8.974h-21.726
	V13.482z"/>
<path fill="#FFFFFF" d="M484.903,8.917c0.039,3.322-2.701,6.062-5.982,6.14c-3.472-0.078-6.211-2.817-6.14-6.14
	c-0.071-3.384,2.668-6.124,5.982-6.14C482.203,2.793,484.942,5.532,484.903,8.917z"/>
<path fill="#FF8200" d="M476.245,12.537h0.944V9.231h2.519c1.597-0.015,1.172,1.354,1.259,2.362l0.158,0.944h1.259
	c-0.465-0.724-0.323-0.913-0.472-1.889c-0.04-1.337-0.087-1.432-0.787-1.889c0.7-0.629,0.983-0.959,0.944-1.889
	c-0.103-1.763-1.236-1.999-2.361-2.046h-3.463V12.537z"/>
<path fill="#FFFFFF" d="M479.708,5.768c0.558-0.046,1.503,0.143,1.417,1.417c-0.15,0.993-0.812,1.182-1.417,1.26h-2.519V5.768
	H479.708z"/>
</svg>
